# xmcd
#
# Track frame offsets:
#	150
#	14751
#	29209
#	41368
#	53350
#	67454
#	79750
#	95267
#	106371
#	121379
#	136158
#	150257
#	163216
#	179236
#
# Disc length: 2549 seconds
#
# Revision: 3
# Processed by: cddbd v1.5.1PL2 Copyright (c) Steve Scherf et al.
# Submitted via: audiograbber 1.83.01
#
DISCID=c009f30e
DTITLE=Dagmar - Wachgekuesst
DYEAR=1900
DGENRE=
TTITLE0=Jolene
TTITLE1=Das ist ja wohl total verrueckt
TTITLE2=Hey Junge, nimm die Finger weg
TTITLE3=Manchmal
TTITLE4=Ich weine keine Traenen wegen dir
TTITLE5=Asta la Vista - Vamos Muchachos
TTITLE6=Ich will dir nah sein
TTITLE7=Lieber stirbt er aus den Stiefeln
TTITLE8=Wenn du gehst
TTITLE9=Du hast mich wachgekuesst
TTITLE10=Ob es heut´ noch Wunder gibt
TTITLE11=Du fuer immer
TTITLE12=So much more than a man
TTITLE13=Now or never
EXTD=
EXTT0=
EXTT1=
EXTT2=
EXTT3=
EXTT4=
EXTT5=
EXTT6=
EXTT7=
EXTT8=
EXTT9=
EXTT10=
EXTT11=
EXTT12=
EXTT13=
PLAYORDER=
